<?xml version="1.0" encoding="utf-8"?>
<!-- Generator: Adobe Illustrator 25.4.1, SVG Export Plug-In . SVG Version: 6.00 Build 0)  -->
<svg version="1.1" id="Lager_1" xmlns="http://www.w3.org/2000/svg" xmlns:xlink="http://www.w3.org/1999/xlink" x="0px" y="0px"
	 viewBox="0 0 512 448" style="enable-background:new 0 0 512 448;" xml:space="preserve">
<style type="text/css">
	.st0{opacity:0.8;enable-background:new    ;}
</style>
<g>
	<path class="st0" d="M332.2,280.4c-4.5,2-8,4.8-10.4,8.6c-2.4,3.8-3.7,7.9-3.7,12.5c0,7,2.7,12.9,8,17.6s13.1,7,23.4,7
		c10.2,0,19.2-2.2,27.1-6.7c7.9-4.4,13.7-10.5,17.4-18.2c2.8-6,4.2-14.7,4.2-26.4v-9.7c-9.6,3.9-23.9,7.2-43.1,10
		C344.4,276.7,336.7,278.5,332.2,280.4z"/>
	<path class="st0" d="M175.8,151.1c-2.7,13.8-6.6,27.4-11.6,41l-23.6,63h72.8L191,195.6C184.2,177.6,179.1,162.7,175.8,151.1z"/>
	<path class="st0" d="M448,0H64C28.7,0,0,28.7,0,64v320c0,35.3,28.7,64,64,64h384c35.3,0,64-28.7,64-64V64C512,28.7,483.3,0,448,0z
		 M247.3,343.3l-25-65h-89.8l-23.6,65H78.7l82.5-214.7h30.6l87.9,214.7H247.3z M405.7,343.3c-2.7-5.5-4.5-11.9-5.3-19.2
		c-9.8,8.3-19.2,14.1-28.2,17.6c-9,3.4-18.7,5.1-29.1,5.1c-17.1,0-30.2-4.2-39.4-12.5c-9.2-8.3-13.8-19-13.8-32
		c0-7.6,1.7-14.6,5.2-20.9s8-11.4,13.6-15.2c5.6-3.8,11.9-6.7,19-8.6c5.2-1.4,13-2.7,23.4-4c21.3-2.5,37-5.6,47-9.1
		c0.1-3.6,0.1-5.9,0.1-6.9c0-10.7-2.5-18.3-7.5-22.7c-6.7-5.9-16.7-8.9-30-8.9c-12.4,0-21.5,2.2-27.5,6.5
		c-5.9,4.3-10.3,12-13.1,23.1l-25.8-3.5c2.3-11,6.2-19.9,11.6-26.7s13.1-12,23.3-15.7c10.2-3.7,21.9-5.5,35.3-5.5
		c13.3,0,24.1,1.6,32.4,4.7c8.3,3.1,14.4,7.1,18.3,11.8s6.6,10.7,8.2,17.9c0.9,4.5,1.3,12.6,1.3,24.3v35.2c0,24.5,0.6,40,1.7,46.5
		s3.3,12.7,6.7,18.7H405.7z"/>
</g>
</svg>
