<?xml version="1.0" encoding="utf-8"?>
<!-- Generator: Adobe Illustrator 25.4.1, SVG Export Plug-In . SVG Version: 6.00 Build 0)  -->
<svg version="1.1" id="Lager_1" xmlns="http://www.w3.org/2000/svg" xmlns:xlink="http://www.w3.org/1999/xlink" x="0px" y="0px"
	 viewBox="0 0 512 449" style="enable-background:new 0 0 512 449;" xml:space="preserve">
<style type="text/css">
	.st0{opacity:0.2;enable-background:new    ;}
</style>
<path class="st0" d="M448,1H64C28.7,1,0,29.7,0,65v320c0,35.3,28.7,64,64,64h384c35.3,0,64-28.7,64-64V65C512,29.7,483.3,1,448,1z
	 M397.7,131.8v159.7c0,26.7-26,48.4-58.1,48.4s-58.1-21.7-58.1-48.4s26-48.4,58.1-48.4c6.8,0,13.3,1,19.4,2.8v-88.1l-154.8,46.4
	v125.9c0,26.7-26,48.4-58.1,48.4S88,356.8,88,330.1s26-48.4,58.1-48.4c6.8,0,13.3,1,19.4,2.8v-94.7v-43.5c0-8.5,5.6-16.1,13.8-18.6
	l193.5-58.1c5.9-1.8,12.2-0.7,17.1,3c4.9,3.6,7.8,9.4,7.8,15.5L397.7,131.8L397.7,131.8z"/>
</svg>
