<?xml version="1.0" encoding="utf-8"?>
<!-- Generator: Adobe Illustrator 25.4.1, SVG Export Plug-In . SVG Version: 6.00 Build 0)  -->
<svg version="1.1" id="Lager_1" xmlns="http://www.w3.org/2000/svg" xmlns:xlink="http://www.w3.org/1999/xlink" x="0px" y="0px"
	 viewBox="0 0 512 512" style="enable-background:new 0 0 512 512;" xml:space="preserve">
<style type="text/css">
	.st0{fill:#FFFFFF;}
</style>
<path class="st0" d="M270.6,255.9L396.6,130c3.2-3.2,3.1-8.4-0.1-11.6s-8.4-3.3-11.6-0.1L258.9,244.2l-126-126
	c-3.2-3.2-8.4-3.1-11.6,0.1s-3.3,8.4-0.1,11.6l126,126l-126,126c-3.2,3.2-3.1,8.4,0.1,11.6c3.3,3.2,8.5,3.2,11.6,0.1l126-126
	l126,126c3.2,3.2,8.4,3.1,11.6-0.1c3.2-3.3,3.2-8.5,0.1-11.6L270.6,255.9z"/>
</svg>
