<?xml version="1.0" encoding="utf-8"?>
<!-- Generator: Adobe Illustrator 25.4.1, SVG Export Plug-In . SVG Version: 6.00 Build 0)  -->
<svg version="1.1" id="Lager_1" xmlns="http://www.w3.org/2000/svg" xmlns:xlink="http://www.w3.org/1999/xlink" x="0px" y="0px"
	 viewBox="0 0 409 299" style="enable-background:new 0 0 409 299;" xml:space="preserve">
<style type="text/css">
	.st0{fill:#FFFFFF;}
</style>
<path class="st0" d="M14.6,25.1h380.8c4.6,0,8.3-3.7,8.3-8.3c0-4.6-3.7-8.3-8.3-8.3H14.6c-4.6,0-8.3,3.7-8.3,8.3
	C6.4,21.4,10.1,25.1,14.6,25.1"/>
<path class="st0" d="M14.6,157.6h380.8c4.6,0,8.3-3.7,8.3-8.3c0-4.6-3.7-8.3-8.3-8.3H14.6c-4.6,0-8.3,3.7-8.3,8.3
	C6.4,153.9,10.1,157.6,14.6,157.6"/>
<path class="st0" d="M14.6,290.2h380.8c4.6,0,8.3-3.7,8.3-8.3c0-4.6-3.7-8.3-8.3-8.3H14.6c-4.6,0-8.3,3.7-8.3,8.3
	C6.4,286.5,10.1,290.2,14.6,290.2"/>
</svg>
